0
SECTION
2
HEADER
9
$ACADVER
1
AC1009
9
$INSUNITS
70
4
9
$EXTMIN
10
0.0
20
0.0
9
$EXTMAX
10
4200.0
20
3000.0
9
$LUPREC
70
0
0
ENDSEC
0
SECTION
2
TABLES
0
TABLE
2
LAYER
70
3
0
LAYER
2
MURI
70
0
62
1
6
CONTINUOUS
0
LAYER
2
INFISSI
70
0
62
3
6
CONTINUOUS
0
LAYER
2
ARREDO
70
0
62
8
6
CONTINUOUS
0
ENDTAB
0
ENDSEC
0
SECTION
2
ENTITIES
0
LWPOLYLINE
8
MURI
90
4
70
1
10
0.0
20
0.0
10
4200.0
20
0.0
10
4200.0
20
3000.0
10
0.0
20
3000.0
0
LWPOLYLINE
8
MURI
90
4
70
1
10
100.0
20
100.0
10
4100.0
20
100.0
10
4100.0
20
2900.0
10
100.0
20
2900.0
0
LINE
8
INFISSI
10
900.0
20
0.0
11
900.0
21
100.0
0
LINE
8
INFISSI
10
1700.0
20
0.0
11
1700.0
21
100.0
0
ARC
8
INFISSI
10
900.0
20
100.0
40
800.0
50
0.0
51
90.0
0
LINE
8
INFISSI
10
900.0
20
100.0
11
1700.0
21
100.0
0
LINE
8
INFISSI
10
2600.0
20
2900.0
11
2600.0
21
3000.0
0
LINE
8
INFISSI
10
3800.0
20
2900.0
11
3800.0
21
3000.0
0
CIRCLE
8
ARREDO
10
3400.0
20
800.0
40
450.0
0
TEXT
8
ARREDO
10
250.0
20
2600.0
40
150.0
1
SOGGIORNO
0
TEXT
8
ARREDO
10
250.0
20
2400.0
40
100.0
1
12,60 mq
0
ENDSEC
0
EOF
